<svg xmlns="http://www.w3.org/2000/svg" xmlns:xlink="http://www.w3.org/1999/xlink" viewBox="0 0 375 192"><defs><style>.cls-1{fill:#9146ff;}.cls-2,.cls-4{fill:none;stroke-miterlimit:10;stroke-width:14px;}.cls-2{stroke:#1fbaed;}.cls-3{fill:url(#linear-gradient);}.cls-4{stroke:#9146ff;}.cls-5{fill:#fff;}.cls-6{fill:url(#linear-gradient-2);}.cls-7{fill:#1fbaed;}</style><linearGradient id="linear-gradient" x1="172" y1="46.5" x2="186.83" y2="46.5" gradientUnits="userSpaceOnUse"><stop offset="0" stop-color="#9146ff"/><stop offset="1" stop-color="#f0f0ff"/></linearGradient><linearGradient id="linear-gradient-2" x1="171.99" y1="98" x2="186.83" y2="98" xlink:href="#linear-gradient"/></defs><title>Asset 1</title><g id="Layer_2" data-name="Layer 2"><g id="Layer_1-2" data-name="Layer 1"><polygon class="cls-1" points="28 67.5 27.99 42.5 0 42.5 0 116.42 13.99 130.5 53 130.5 53 102.5 28 102.5 28 95.5 53 95.5 53 67.5 28 67.5"/><polygon class="cls-1" points="131 67.5 131 102.5 124 102.5 124 67.5 95 67.5 95 102.5 88 102.5 88 67.5 60 67.5 60 116.5 74.14 130.5 159 130.5 159 67.5 131 67.5"/><path class="cls-2" d="M216.79,99h-71.4c-5.44,0-9.89,5.4-9.89,12v63c0,6.6,4.45,11,9.89,11H357.11A11,11,0,0,0,368,174v-5.5"/><path class="cls-3" d="M172,38.5h6.69a8.13,8.13,0,0,1,8.13,8.13h0A7.87,7.87,0,0,1,179,54.5h-7Z"/><path id="Purple_Line" data-name="Purple Line" class="cls-4" d="M240,131h71.37a10.16,10.16,0,0,0,10.13-10.13V17.13A10.16,10.16,0,0,0,311.37,7H17.63A10.16,10.16,0,0,0,7.5,17.13V32.46"/><path id="I-right" class="cls-5" d="M179,130.5h6a2,2,0,0,0,2-2v-55a7.64,7.64,0,0,0-7.66-7.66"/><path class="cls-6" d="M172,65.5h6.84a8,8,0,0,1,8,8v55a2,2,0,0,1-2,2H172Z"/><path id="X-left" class="cls-5" d="M213.56,68.93a7.66,7.66,0,0,0-11.3-1.07,7.92,7.92,0,0,0-.79,10.5L216.83,99l-15.46,20.78a7.88,7.88,0,0,0,.8,10.51,7.66,7.66,0,0,0,11.3-1.07l21.57-29a2,2,0,0,0,0-2.38Z"/><path id="X-right" class="cls-7" d="M248.25,99A7.66,7.66,0,0,1,259.55,98a7.93,7.93,0,0,1,.8,10.51L245,129.05l15.46,20.79a7.86,7.86,0,0,1-.79,10.5,7.66,7.66,0,0,1-11.31-1.07l-21.52-29.05a2,2,0,0,1,0-2.38Z"/><path id="E" class="cls-7" d="M289.39,112.78a12.9,12.9,0,0,1,9.39-4c3.93,0,7,1.21,9.2,3.64s3.18,5.7,3.27,10.09H284.49a18.66,18.66,0,0,1,4.9-9.72m24.8,35.62a1.78,1.78,0,0,0-2-.61h0c-8,2.76-26.43,4.39-27.79-14.29h35.31a6.8,6.8,0,0,0,6.82-6.77c0-8.47-1.53-16.66-7.29-23-14-15.55-50.53-9.67-50.53,25.59,0,36.57,34.19,35.77,49.69,28.67a2,2,0,0,0,.75-3Z"/><path class="cls-7" d="M372.76,97.34h0a24.29,24.29,0,0,0-8.5-.28c-5.47,1.64-9.48,5.37-11.91,11A13.32,13.32,0,0,0,339.13,96.5H337v62a2,2,0,0,0,2,2h11a2,2,0,0,0,2-2V128.23c0-12.51,7.14-21.29,19.26-16.86A2,2,0,0,0,374,109.5V99.07a2,2,0,0,0-1.44-2"/></g></g></svg>